<svg xmlns="http://www.w3.org/2000/svg" width="30" height="39.357" viewBox="0 0 30 39.357">
  <path id="Path_2111" data-name="Path 2111" d="M4103.584,2151.031c-.641,1.026-.909,4.254-.686,6.394a5.107,5.107,0,0,0,.392,1.647,1.388,1.388,0,0,0,1.176.793c.313.016.511-.039,6.418-1.938,0,0,2.625-.839,2.638-.846a1.6,1.6,0,0,0,1.14-1.537,1.693,1.693,0,0,0-1.036-1.735s-1.851-.754-1.855-.754c-6.352-2.618-6.635-2.722-6.955-2.725a1.389,1.389,0,0,0-1.231.7m14.2,19.516c.1-.3.117-.5.134-6.71,0,0,.012-2.742.016-2.771a1.6,1.6,0,0,0-1.1-1.56,1.711,1.711,0,0,0-1.968.443s-1.295,1.538-1.3,1.538c-4.448,5.225-4.635,5.467-4.742,5.775a1.249,1.249,0,0,0-.07.569,1.515,1.515,0,0,0,.358.806c1.033,1.227,5.979,3.046,7.559,2.774a1.359,1.359,0,0,0,1.119-.864m10.039-2.159c1.492-.6,4.745-4.732,4.975-6.329a1.387,1.387,0,0,0-.476-1.336c-.249-.188-.44-.262-6.348-2.2,0,0-2.59-.855-2.626-.871a1.6,1.6,0,0,0-1.822.576,1.691,1.691,0,0,0-.175,2.02l1.042,1.7c3.506,5.694,3.774,6.1,4.027,6.293a1.359,1.359,0,0,0,1.4.152m-3.052-14.657c6.709-1.625,6.972-1.712,7.234-1.888a1.375,1.375,0,0,0,.577-1.288.346.346,0,0,0,0-.055c-.171-1.651-3.059-5.936-4.483-6.632a1.39,1.39,0,0,0-1.428.055c-.259.169-.449.424-4.043,5.341,0,0-1.622,2.211-1.641,2.233a1.588,1.588,0,0,0-.016,1.906,1.691,1.691,0,0,0,1.835.8s-.026.049-.032.055a19.958,19.958,0,0,1,2-.527m-6.737-5.542c-.116-2.661-.916-14.5-1.01-15.052a1.418,1.418,0,0,0-1.081-.994c-1.716-.424-8.265,1.412-9.479,2.662a1.429,1.429,0,0,0-.417,1.349c.191.392,8.306,13.159,8.306,13.159,1.2,1.945,2.179,1.641,2.5,1.541s1.291-.4,1.181-2.664" transform="translate(-4102.821 -2132.081)" fill="#d9232e"/>
</svg>
