<svg xmlns="http://www.w3.org/2000/svg" width="105.851" height="41.059" viewBox="0 0 105.851 41.059">
  <g id="Group_271" data-name="Group 271" transform="translate(-307.212 -33)">
    <path id="Path_2152" data-name="Path 2152" d="M675.834,96.23v-.018A1.751,1.751,0,0,0,674,94.375H672.96V98.05H674A1.737,1.737,0,0,0,675.834,96.23Z" transform="translate(-293.038 -49.174)" fill="#fff"/>
    <path id="Path_2153" data-name="Path 2153" d="M514.876,134.085v-.017c0-.4-.314-.627-.88-.627h-1.324v1.289h1.237C514.5,134.729,514.876,134.537,514.876,134.085Z" transform="translate(-164.615 -80.473)" fill="#fff"/>
    <path id="Path_2154" data-name="Path 2154" d="M452.117,217.311a.453.453,0,0,0-.456.458v0a.455.455,0,1,0,.91,0v0A.449.449,0,0,0,452.117,217.311Zm.12.716-.117-.177h-.1v.177h-.12v-.548h.243a.233.233,0,0,1,.169.06.168.168,0,0,1,.045.12v0a.17.17,0,0,1-.118.17l.133.2Z" transform="translate(-115.733 -147.67)" fill="#fff"/>
    <path id="Path_2155" data-name="Path 2155" d="M560.987,186.354a.973.973,0,0,0-.93,1.059v.015a.941.941,0,1,0,1.867,0v-.015A.978.978,0,0,0,560.987,186.354Z" transform="translate(-202.58 -122.868)" fill="#fff"/>
    <path id="Path_2156" data-name="Path 2156" d="M453.61,218.7h-.118v.16h.121c.06,0,.094-.032.094-.078v0C453.707,218.726,453.67,218.7,453.61,218.7Z" transform="translate(-117.2 -148.783)" fill="#fff"/>
    <path id="Path_2157" data-name="Path 2157" d="M536.708,186.354a.973.973,0,0,0-.93,1.059v.015a.941.941,0,1,0,1.867,0v-.015A.978.978,0,0,0,536.708,186.354Z" transform="translate(-183.128 -122.868)" fill="#fff"/>
    <path id="Path_2158" data-name="Path 2158" d="M514.222,145.532h-1.55v1.341h1.594c.592,0,.95-.209.95-.662v-.017C515.215,145.785,514.911,145.532,514.222,145.532Z" transform="translate(-164.615 -90.161)" fill="#fff"/>
    <path id="Path_2159" data-name="Path 2159" d="M512.428,186.354a.973.973,0,0,0-.93,1.059v.015a.941.941,0,1,0,1.867,0v-.015A.978.978,0,0,0,512.428,186.354Z" transform="translate(-163.674 -122.868)" fill="#fff"/>
    <path id="Path_2160" data-name="Path 2160" d="M429.209,205.681H427.25v1.695h2.014c.748,0,1.2-.264,1.2-.836v-.023C430.465,206,430.078,205.681,429.209,205.681Z" transform="translate(-96.175 -138.352)" fill="#fff"/>
    <path id="Path_2161" data-name="Path 2161" d="M593.6,186.427a.982.982,0,0,0-.994,1.044v.015a1.018,1.018,0,0,0,1.009,1.059.982.982,0,0,0,.994-1.044v-.014A1.019,1.019,0,0,0,593.6,186.427Z" transform="translate(-228.662 -122.926)" fill="#fff"/>
    <path id="Path_2162" data-name="Path 2162" d="M355.926,205.681h-1.959v1.695h2.014c.748,0,1.2-.264,1.2-.836v-.023C357.18,206,356.795,205.681,355.926,205.681Z" transform="translate(-37.46 -138.352)" fill="#fff"/>
    <path id="Path_2163" data-name="Path 2163" d="M356.751,191.218V191.2c0-.506-.4-.793-1.111-.793h-1.673v1.629h1.563C356.278,192.032,356.751,191.79,356.751,191.218Z" transform="translate(-37.46 -126.112)" fill="#fff"/>
    <path id="Path_2164" data-name="Path 2164" d="M393.393,191.218V191.2c0-.506-.4-.793-1.11-.793H390.61v1.629h1.563C392.921,192.032,393.393,191.79,393.393,191.218Z" transform="translate(-66.819 -126.112)" fill="#fff"/>
    <path id="Path_2165" data-name="Path 2165" d="M430.034,191.218V191.2c0-.506-.4-.793-1.111-.793H427.25v1.629h1.563C429.561,192.032,430.034,191.79,430.034,191.218Z" transform="translate(-96.175 -126.112)" fill="#fff"/>
    <path id="Path_2166" data-name="Path 2166" d="M392.568,205.681H390.61v1.695h2.013c.749,0,1.2-.264,1.2-.836v-.023C393.824,206,393.438,205.681,392.568,205.681Z" transform="translate(-66.819 -138.352)" fill="#fff"/>
    <path id="Path_2167" data-name="Path 2167" d="M519,96.17l-.81,1.977h1.62Z" transform="translate(-169.039 -50.612)" fill="#fff"/>
    <path id="Path_2168" data-name="Path 2168" d="M780.739,94.375H779.7V98.05h1.037a1.737,1.737,0,0,0,1.837-1.82v-.018A1.751,1.751,0,0,0,780.739,94.375Z" transform="translate(-378.56 -49.174)" fill="#fff"/>
    <path id="Path_2169" data-name="Path 2169" d="M632.245,186.246a.88.88,0,0,0-.93.887v.014a.875.875,0,0,0,.93.887.886.886,0,0,0,.937-.887v-.014A.886.886,0,0,0,632.245,186.246Z" transform="translate(-259.672 -122.781)" fill="#fff"/>
    <path id="Path_2170" data-name="Path 2170" d="M614.309,95.263v-.017c0-.575-.4-.871-1.054-.871h-1.333v1.75h1.359C613.934,96.125,614.309,95.777,614.309,95.263Z" transform="translate(-244.134 -49.174)" fill="#fff"/>
    <path id="Path_2171" data-name="Path 2171" d="M405.54,33h-90.8a7.523,7.523,0,0,0-7.523,7.523V66.536a7.523,7.523,0,0,0,7.523,7.523h90.8a7.523,7.523,0,0,0,7.523-7.523V40.523A7.523,7.523,0,0,0,405.54,33ZM378.58,43.991h2.378a3.039,3.039,0,0,1,3.24,3.031v.017a3.052,3.052,0,0,1-3.24,3.049H378.58Zm-5.836,0h4.6v1.193h-3.266V46.42h2.874v1.194h-2.874v1.28h3.31v1.193h-4.643Zm-.524,7.8h1.324v6.1H372.4l-2.952-3.876v3.876h-1.324v-6.1h1.237l2.857,3.754Zm-12.473-4.753a3.1,3.1,0,0,1,3.179-3.153,3.146,3.146,0,0,1,2.4.941l-.853.984a2.252,2.252,0,0,0-1.559-.688,1.807,1.807,0,0,0-1.768,1.9v.017a1.811,1.811,0,0,0,1.768,1.917,2.2,2.2,0,0,0,1.6-.714l.853.862a3.117,3.117,0,0,1-2.5,1.089,3.078,3.078,0,0,1-3.127-3.136Zm6.855,4.753v6.1h-1.341v-6.1Zm-5.131,3.632c-1.228-.314-2.021-.653-2.021-1.864v-.018a1.907,1.907,0,0,1,2.134-1.837,3.53,3.53,0,0,1,2.265.775l-.7,1.01a2.862,2.862,0,0,0-1.585-.6c-.514,0-.784.235-.784.531v.018c0,.4.261.531,1.315.8,1.237.322,1.934.766,1.934,1.829v.017c0,1.211-.923,1.89-2.238,1.89A3.88,3.88,0,0,1,359.207,57l.793-.95a2.794,2.794,0,0,0,1.82.74c.549,0,.88-.218.88-.575V56.2C362.7,55.859,362.491,55.685,361.472,55.424Zm-7.979-8.385a3.1,3.1,0,0,1,3.179-3.153,3.146,3.146,0,0,1,2.4.941l-.854.984a2.251,2.251,0,0,0-1.559-.688,1.807,1.807,0,0,0-1.768,1.9v.017a1.811,1.811,0,0,0,1.768,1.917,2.2,2.2,0,0,0,1.6-.714l.854.862a3.117,3.117,0,0,1-2.5,1.089,3.078,3.078,0,0,1-3.127-3.136Zm2.107,9.709c.819,0,1.315-.5,1.315-1.463V51.792h1.341v3.44a2.454,2.454,0,0,1-2.674,2.752,2.42,2.42,0,0,1-2.639-2.709V51.792h1.341V55.24C354.285,56.233,354.782,56.747,355.6,56.747Zm-6.237-12.8H350.6l2.613,6.14h-1.4l-.557-1.368h-2.578l-.557,1.368h-1.368ZM322.877,39.9l2.505-3.454.375.271a1.382,1.382,0,0,0,.308,1.929l4.741,3.445a4.473,4.473,0,0,1,1,6.249l-3.094,4.276-.377-.273a2.37,2.37,0,0,0,.458-1.4,2.4,2.4,0,0,0-.991-1.946l-3.926-2.843a4.45,4.45,0,0,1-1.793-2.919,4.629,4.629,0,0,1-.056-.713A4.44,4.44,0,0,1,322.877,39.9Zm-1.884,9.125,1.65-2.277.471.341h0a.762.762,0,0,0-.147.451.845.845,0,0,0,.01.123.765.765,0,0,0,.309.5l3.124,2.269a3.071,3.071,0,0,1,1.236,2.013,3.032,3.032,0,0,1,.039.491,3.068,3.068,0,0,1-.588,1.806l-1.65,2.276-.471-.34a.77.77,0,0,0,.137-.576.761.761,0,0,0-.309-.5l-3.124-2.269a3.086,3.086,0,0,1-.687-4.31ZM321.4,68.4c0,1.408-1.145,2.113-2.883,2.113h-3.664v-7.7h3.577a2.779,2.779,0,0,1,2.013.683,1.765,1.765,0,0,1,.528,1.309v.022a1.791,1.791,0,0,1-1.012,1.661,1.885,1.885,0,0,1,1.442,1.894Zm7.284,0c0,1.408-1.143,2.113-2.883,2.113h-3.664v-7.7h3.576a2.776,2.776,0,0,1,2.013.683,1.769,1.769,0,0,1,.529,1.309v.022a1.791,1.791,0,0,1-1.012,1.661,1.884,1.884,0,0,1,1.441,1.894Zm-.437-6.892h-5.718l-.664-2.153H318.39l.474-1.56h13.054l.474,1.56h-3.478Zm4.839,9.005h-3.664v-7.7H333a2.779,2.779,0,0,1,2.014.683,1.768,1.768,0,0,1,.529,1.309v.022a1.791,1.791,0,0,1-1.013,1.661,1.884,1.884,0,0,1,1.442,1.894V68.4C335.973,69.8,334.828,70.509,333.09,70.509Zm3.808-.41a.514.514,0,0,1-1.029,0v0a.514.514,0,0,1,1.029,0Zm13.88-5.539a1.8,1.8,0,0,1-1.745,1.981,1.472,1.472,0,0,1-1.194-.573v.5h-1.087V61.248h1.087v1.938a1.408,1.408,0,0,1,1.194-.622,1.8,1.8,0,0,1,1.745,1.981Zm-1.127-6.671h-2.9v-6.1h2.831c1.245,0,2.012.618,2.012,1.576v.017a1.418,1.418,0,0,1-.8,1.315,1.49,1.49,0,0,1,1.141,1.5v.017C351.933,57.331,351.027,57.888,349.651,57.888ZM355.6,64.56a1.8,1.8,0,0,1-1.745,1.981,1.472,1.472,0,0,1-1.194-.573v.5h-1.087V61.248h1.087v1.938a1.407,1.407,0,0,1,1.194-.622,1.8,1.8,0,0,1,1.745,1.981Zm4.827,0a1.8,1.8,0,0,1-1.745,1.981,1.472,1.472,0,0,1-1.194-.573v.5H356.4V61.248h1.087v1.938a1.407,1.407,0,0,1,1.194-.622,1.8,1.8,0,0,1,1.745,1.981Zm1.844,1.91h-1.159V65.325h1.159Zm4.749-1.91a2.076,2.076,0,0,1-4.148.014V64.56a2.076,2.076,0,0,1,4.148-.015Zm.764-14.472h-1.341v-6.1h2.787c1.437,0,2.3.757,2.3,2.012v.017a1.893,1.893,0,0,1-1.306,1.89l1.489,2.177h-1.567l-1.307-1.951h-1.054ZM370.12,63.7h-.057c-.722,0-1.166.436-1.166,1.352v1.416H367.81V62.635H368.9v.773a1.185,1.185,0,0,1,1.223-.844Zm4.462,1.9c0,1.445-.715,2.024-2.138,2.024a3.636,3.636,0,0,1-1.695-.4l.372-.815a2.5,2.5,0,0,0,1.294.35c.744,0,1.095-.358,1.095-1.044v-.186a1.5,1.5,0,0,1-1.252.622,1.684,1.684,0,0,1-1.7-1.788v-.014a1.687,1.687,0,0,1,1.7-1.788,1.553,1.553,0,0,1,1.238.572v-.5h1.087Zm5.069-7.716h-4.642v-6.1h4.6v1.193h-3.266v1.237h2.874v1.194h-2.874V56.7h3.31Zm5.6-1.8c0,1.211-.923,1.89-2.239,1.89A3.878,3.878,0,0,1,380.428,57l.792-.95a2.8,2.8,0,0,0,1.821.74c.549,0,.879-.218.879-.575V56.2c0-.34-.209-.514-1.228-.775-1.228-.314-2.021-.653-2.021-1.864v-.018a1.907,1.907,0,0,1,2.134-1.837,3.53,3.53,0,0,1,2.265.775l-.7,1.01a2.861,2.861,0,0,0-1.585-.6c-.514,0-.784.235-.784.531v.018c0,.4.262.531,1.315.8,1.237.322,1.934.766,1.934,1.829Zm.2-12.095h1.341v6.1h-1.341Zm5.288,12.095c0,1.211-.923,1.89-2.239,1.89A3.879,3.879,0,0,1,385.916,57l.792-.95a2.8,2.8,0,0,0,1.82.74c.549,0,.88-.218.88-.575V56.2c0-.34-.209-.514-1.228-.775-1.228-.314-2.021-.653-2.021-1.864v-.018a1.907,1.907,0,0,1,2.134-1.837,3.53,3.53,0,0,1,2.265.775l-.7,1.01a2.86,2.86,0,0,0-1.585-.6c-.514,0-.784.235-.784.531v.018c0,.4.261.531,1.315.8,1.237.322,1.934.766,1.934,1.829Zm2.194-10.858H391.08v4.86h-1.341v-4.86h-1.856V43.991h5.052Zm5.671,4.86h-4.642v-6.1h4.6v1.193H395.3V46.42h2.875v1.194H395.3v1.28h3.31Zm6.812-3.049a3.052,3.052,0,0,1-3.24,3.049H399.8v-6.1h2.378a3.039,3.039,0,0,1,3.24,3.031Z" fill="#fff"/>
  </g>
</svg>
