<svg xmlns="http://www.w3.org/2000/svg" xmlns:xlink="http://www.w3.org/1999/xlink" width="131" height="24" viewBox="0 0 131 24">
  <defs>
    <clipPath id="clip-iPhone_X_XS_11_Pro_1">
      <rect width="131" height="24"/>
    </clipPath>
  </defs>
  <g id="iPhone_X_XS_11_Pro_1" data-name="iPhone X/XS/11 Pro – 1" clip-path="url(#clip-iPhone_X_XS_11_Pro_1)">
    <rect width="131" height="24" fill="#fff"/>
    <g id="Logo_horizontal_color" data-name="Logo horizontal color">
      <g id="Group_351" data-name="Group 351" transform="translate(23.244 5.767)">
        <path id="Path_2223" data-name="Path 2223" d="M513.7-73.237l-1.431.913a3.536,3.536,0,0,0-2.961-1.463,3.581,3.581,0,0,0-3.757,3.687,3.581,3.581,0,0,0,3.757,3.685,3.517,3.517,0,0,0,2.953-1.455l1.394.978a5.23,5.23,0,0,1-4.347,2.049,5.217,5.217,0,0,1-5.551-5.257,5.217,5.217,0,0,1,5.551-5.258A5.117,5.117,0,0,1,513.7-73.237Z" transform="translate(-503.754 75.358)" stroke="#000" stroke-miterlimit="10" stroke-width="0.3"/>
        <path id="Path_2224" data-name="Path 2224" d="M525-70.586l-.378,1.5a2.935,2.935,0,0,0-1.2-.253,1.676,1.676,0,0,0-1.727,1.861v3.816h-1.583V-70.6h1.568v.782a2.456,2.456,0,0,1,2.1-.963A3.3,3.3,0,0,1,525-70.586Z" transform="translate(-508.118 73.99)" stroke="#000" stroke-miterlimit="10" stroke-width="0.3"/>
        <path id="Path_2225" data-name="Path 2225" d="M535.668-67.132a3.7,3.7,0,0,1-3.908,3.65,3.69,3.69,0,0,1-3.9-3.65,3.689,3.689,0,0,1,3.9-3.65A3.7,3.7,0,0,1,535.668-67.132Zm-6.18,0a2.174,2.174,0,0,0,2.273,2.224,2.18,2.18,0,0,0,2.279-2.224,2.18,2.18,0,0,0-2.279-2.223A2.174,2.174,0,0,0,529.487-67.132Z" transform="translate(-510.187 73.99)" stroke="#000" stroke-miterlimit="10" stroke-width="0.3"/>
        <path id="Path_2226" data-name="Path 2226" d="M543.664-69.454c-.871,0-1.371.333-1.371.826s.531.623,1.2.717l.749.109c1.583.224,2.522.862,2.522,2.049,0,1.333-1.212,2.267-3.3,2.267a5.519,5.519,0,0,1-3.112-.891l.735-1.137a3.758,3.758,0,0,0,2.392.709c1.092,0,1.651-.326,1.651-.847,0-.4-.386-.652-1.257-.768l-.756-.095c-1.613-.21-2.461-.912-2.461-2.034,0-1.369,1.151-2.223,3-2.223a5.707,5.707,0,0,1,2.938.73l-.681,1.181A4.9,4.9,0,0,0,543.664-69.454Z" transform="translate(-513.52 73.987)" stroke="#000" stroke-miterlimit="10" stroke-width="0.3"/>
        <path id="Path_2227" data-name="Path 2227" d="M554.114-69.454c-.87,0-1.37.333-1.37.826s.53.623,1.2.717l.749.109c1.584.224,2.523.862,2.523,2.049,0,1.333-1.212,2.267-3.3,2.267a5.521,5.521,0,0,1-3.113-.891l.734-1.137a3.76,3.76,0,0,0,2.393.709c1.091,0,1.651-.326,1.651-.847,0-.4-.386-.652-1.257-.768l-.758-.095c-1.613-.21-2.461-.912-2.461-2.034,0-1.369,1.151-2.223,3-2.223a5.712,5.712,0,0,1,2.939.73l-.682,1.181A4.9,4.9,0,0,0,554.114-69.454Z" transform="translate(-516.308 73.987)" stroke="#000" stroke-miterlimit="10" stroke-width="0.3"/>
        <path id="Path_2228" data-name="Path 2228" d="M577.1-73.237l-1.432.913a3.536,3.536,0,0,0-2.962-1.463,3.581,3.581,0,0,0-3.756,3.687,3.58,3.58,0,0,0,3.756,3.685,3.52,3.52,0,0,0,2.954-1.455l1.393.978a5.228,5.228,0,0,1-4.347,2.049A5.217,5.217,0,0,1,567.16-70.1a5.217,5.217,0,0,1,5.551-5.258A5.121,5.121,0,0,1,577.1-73.237Z" transform="translate(-520.675 75.358)" stroke="#000" stroke-miterlimit="10" stroke-width="0.3"/>
        <path id="Path_2229" data-name="Path 2229" d="M590.4-67.132a3.7,3.7,0,0,1-3.908,3.65,3.688,3.688,0,0,1-3.9-3.65,3.688,3.688,0,0,1,3.9-3.65A3.7,3.7,0,0,1,590.4-67.132Zm-6.18,0a2.174,2.174,0,0,0,2.272,2.224,2.179,2.179,0,0,0,2.279-2.224,2.179,2.179,0,0,0-2.279-2.223A2.174,2.174,0,0,0,584.221-67.132Z" transform="translate(-524.794 73.99)" stroke="#000" stroke-miterlimit="10" stroke-width="0.3"/>
        <path id="Path_2230" data-name="Path 2230" d="M599.185-63.405c-1.7,0-3.362-.913-3.362-3.121v-4h1.59v3.86a1.617,1.617,0,0,0,1.772,1.832,1.617,1.617,0,0,0,1.773-1.832v-3.86h1.59v4A3.047,3.047,0,0,1,599.185-63.405Z" transform="translate(-528.324 73.913)" stroke="#000" stroke-miterlimit="10" stroke-width="0.3"/>
        <path id="Path_2231" data-name="Path 2231" d="M615.037-68.023v4.36h-1.59v-3.86a1.6,1.6,0,0,0-1.688-1.818,1.76,1.76,0,0,0-1.879,1.832v3.846h-1.59V-70.6h1.575v.848a2.642,2.642,0,0,1,2.227-1.028A2.739,2.739,0,0,1,615.037-68.023Z" transform="translate(-531.651 73.99)" stroke="#000" stroke-miterlimit="10" stroke-width="0.3"/>
        <path id="Path_2232" data-name="Path 2232" d="M622.532-70.044v3.02c0,.927.515,1.3,1.151,1.3a3,3,0,0,0,1.461-.471l.629,1.209a4.018,4.018,0,0,1-2.227.688,2.359,2.359,0,0,1-2.6-2.694v-3.049h-1.447V-71.42h1.447v-2.1h1.59v2.1h2.779v1.376Z" transform="translate(-534.641 74.808)" stroke="#000" stroke-miterlimit="10" stroke-width="0.3"/>
        <path id="Path_2233" data-name="Path 2233" d="M634.961-70.586l-.378,1.5a2.933,2.933,0,0,0-1.2-.253,1.676,1.676,0,0,0-1.727,1.861v3.816h-1.583V-70.6h1.567v.782a2.456,2.456,0,0,1,2.106-.963A3.3,3.3,0,0,1,634.961-70.586Z" transform="translate(-537.463 73.99)" stroke="#000" stroke-miterlimit="10" stroke-width="0.3"/>
        <path id="Path_2234" data-name="Path 2234" d="M638.557-60.647l2.6-4.367-3.218-5.511h1.778l2.333,3.983,2.249-3.983h1.742l-5.725,9.877Z" transform="translate(-539.563 73.913)" stroke="#000" stroke-miterlimit="10" stroke-width="0.3"/>
      </g>
      <path id="Path_2235" data-name="Path 2235" d="M472.262-64.494l2.446,2.339h0l2.465,2.356a.74.74,0,0,0,.513.2.741.741,0,0,0,.512-.2l8.59-8.215h0l.284-.272a4.548,4.548,0,0,0,1.434-3.309h0a4.5,4.5,0,0,0-.82-2.594,4.793,4.793,0,0,0-.614-.714l-2.46-2.352-.005-.006h0L478.2-83.389a.771.771,0,0,0-1.025,0l-4.831,4.619a.673.673,0,0,0,0,.981l6.4,6.119-6.48,6.2A.671.671,0,0,0,472.262-64.494Zm3.009-15.115,5.894,5.617c-.01.01-.018.021-.029.03l-1.37,1.311-5.886-5.629Zm5.955,1.075a.639.639,0,0,0,.046.078,3.192,3.192,0,0,1,.673,3.25L476.3-80.589l1.391-1.33Zm-4.98,15.889,8.363-8a4.564,4.564,0,0,0,1.43-3.291l.01.01c.081.078.158.159.23.243a3.183,3.183,0,0,1,.779,2.086,3.2,3.2,0,0,1-1.009,2.329l-8.363,8Zm-2.447-2.34,8.363-8a4.543,4.543,0,0,0,1.421-3.3l0,0a3.2,3.2,0,0,1,0,4.656l-8.363,8Z" transform="translate(-472.049 83.584)" fill="#ee3f23"/>
    </g>
  </g>
</svg>
