<svg id="Logo_-_color" data-name="Logo - color" xmlns="http://www.w3.org/2000/svg" width="160.133" height="43" viewBox="0 0 160.133 43">
  <g id="Group_1" data-name="Group 1" transform="translate(40.259 9.241)">
    <path id="Path_1" data-name="Path 1" d="M525.285,203.337l-2.067,1.267a3.611,3.611,0,0,0-3.12-1.663,3.949,3.949,0,0,0,0,7.893,3.663,3.663,0,0,0,3.146-1.654l1.964,1.413a6.3,6.3,0,1,1-5.093-9.962A5.876,5.876,0,0,1,525.285,203.337Z" transform="translate(-513.781 -200.631)"/>
    <path id="Path_2" data-name="Path 2" d="M535.559,205.265l-.335,2.231a3.656,3.656,0,0,0-1.362-.267,1.674,1.674,0,0,0-1.758,1.879v4.549h-2.249v-8.349h2.181v.913a2.607,2.607,0,0,1,2.352-1.137A3.415,3.415,0,0,1,535.559,205.265Z" transform="translate(-516.447 -201.369)"/>
    <path id="Path_3" data-name="Path 3" d="M546.608,209.478a4.517,4.517,0,1,1-4.524-4.394A4.343,4.343,0,0,1,546.608,209.478Zm-6.738,0a2.22,2.22,0,1,0,2.215-2.3A2.183,2.183,0,0,0,539.869,209.478Z" transform="translate(-517.727 -201.369)"/>
    <path id="Path_4" data-name="Path 4" d="M553.749,206.955c-.862,0-1.285.3-1.285.758,0,.491.6.6,1.361.716l.742.112c1.818.276,2.819,1.078,2.819,2.5,0,1.723-1.415,2.835-3.835,2.835a6.729,6.729,0,0,1-3.714-.983l.887-1.707a4.887,4.887,0,0,0,2.844.819c1.043,0,1.542-.293,1.542-.784,0-.405-.413-.629-1.386-.767l-.681-.1q-2.883-.4-2.887-2.533c0-1.715,1.328-2.732,3.523-2.732a7.354,7.354,0,0,1,3.491.792l-.758,1.75A6.72,6.72,0,0,0,553.749,206.955Z" transform="translate(-519.761 -201.371)"/>
    <path id="Path_5" data-name="Path 5" d="M564.158,206.955c-.863,0-1.285.3-1.285.758,0,.491.6.6,1.362.716l.742.112c1.818.276,2.817,1.078,2.817,2.5,0,1.723-1.412,2.835-3.835,2.835a6.727,6.727,0,0,1-3.714-.983l.888-1.707a4.878,4.878,0,0,0,2.843.819c1.043,0,1.542-.293,1.542-.784,0-.405-.414-.629-1.388-.767l-.68-.1q-2.883-.4-2.886-2.533c0-1.715,1.326-2.732,3.524-2.732a7.352,7.352,0,0,1,3.489.792l-.758,1.75A6.72,6.72,0,0,0,564.158,206.955Z" transform="translate(-521.487 -201.371)"/>
    <path id="Path_6" data-name="Path 6" d="M587.586,203.337l-2.069,1.267a3.611,3.611,0,0,0-3.119-1.663,3.949,3.949,0,0,0,0,7.893,3.66,3.66,0,0,0,3.145-1.654l1.964,1.413a6.3,6.3,0,1,1-5.093-9.962A5.88,5.88,0,0,1,587.586,203.337Z" transform="translate(-524.113 -200.631)"/>
    <path id="Path_7" data-name="Path 7" d="M600.308,209.478a4.517,4.517,0,1,1-4.525-4.394A4.344,4.344,0,0,1,600.308,209.478Zm-6.739,0a2.22,2.22,0,1,0,2.215-2.3A2.183,2.183,0,0,0,593.569,209.478Z" transform="translate(-526.633 -201.369)"/>
    <path id="Path_8" data-name="Path 8" d="M608.185,213.918c-2.095,0-3.956-1.138-3.956-3.775v-4.791h2.249v4.592c0,1.336.732,1.879,1.707,1.879s1.706-.542,1.706-1.879v-4.592h2.24v4.791C612.13,212.78,610.277,213.918,608.185,213.918Z" transform="translate(-528.781 -201.414)"/>
    <path id="Path_9" data-name="Path 9" d="M624.351,208.341v5.316H622.1v-4.593c0-1.215-.595-1.869-1.629-1.869a1.707,1.707,0,0,0-1.767,1.887v4.575h-2.249v-8.349h2.189v.982a2.789,2.789,0,0,1,2.456-1.206A3.11,3.11,0,0,1,624.351,208.341Z" transform="translate(-530.809 -201.369)"/>
    <path id="Path_10" data-name="Path 10" d="M631.44,206.858v3.051c0,1.034.561,1.421,1.25,1.421a3.235,3.235,0,0,0,1.568-.542l.828,1.758a4.626,4.626,0,0,1-2.766.879c-2.077,0-3.128-1.164-3.128-3.335v-3.232H627.58v-2h1.612v-2.482h2.249v2.482h3.025v2Z" transform="translate(-532.654 -200.921)"/>
    <path id="Path_11" data-name="Path 11" d="M643.921,205.265l-.336,2.231a3.661,3.661,0,0,0-1.361-.267,1.674,1.674,0,0,0-1.758,1.879v4.549h-2.249v-8.349h2.18v.913a2.606,2.606,0,0,1,2.352-1.137A3.42,3.42,0,0,1,643.921,205.265Z" transform="translate(-534.417 -201.369)"/>
    <path id="Path_12" data-name="Path 12" d="M646.744,217.184l2.921-5.257-3.6-6.574h2.551l2.292,4.291,2.223-4.291h2.465l-6.385,11.831Z" transform="translate(-535.719 -201.414)"/>
    <path id="Path_13" data-name="Path 13" d="M523.555,229.97V222.39l-2.691,6.679H519.3l-2.692-6.607v7.508h-1.487v-9.212H517.4l2.678,6.581,2.679-6.581h2.284v9.212Z" transform="translate(-514.003 -203.969)"/>
    <path id="Path_14" data-name="Path 14" d="M536.052,227.364a3.393,3.393,0,1,1-3.4-3.317A3.277,3.277,0,0,1,536.052,227.364Zm-5.37,0a1.978,1.978,0,1,0,1.974-2.02A1.931,1.931,0,0,0,530.683,227.364Z" transform="translate(-516.349 -204.514)"/>
    <path id="Path_15" data-name="Path 15" d="M540.789,230.549l-2.533-6.3h1.5l1.862,4.876,1.863-4.876h1.461l-2.52,6.3Z" transform="translate(-517.84 -204.547)"/>
    <path id="Path_16" data-name="Path 16" d="M553.245,227.357a4.393,4.393,0,0,1-.026.514h-4.659a1.781,1.781,0,0,0,1.875,1.606,2.988,2.988,0,0,0,1.823-.665l.685.98a3.8,3.8,0,0,1-2.594.888,3.32,3.32,0,0,1-.084-6.633A3.01,3.01,0,0,1,553.245,227.357Zm-4.678-.533h3.269a1.594,1.594,0,0,0-1.6-1.552A1.623,1.623,0,0,0,548.567,226.824Z" transform="translate(-519.311 -204.514)"/>
    <path id="Path_17" data-name="Path 17" d="M560.759,224.225l-.33,1.362a2.46,2.46,0,0,0-1.046-.23,1.5,1.5,0,0,0-1.5,1.692v3.468h-1.375v-6.3h1.362v.712a2.1,2.1,0,0,1,1.829-.876A2.752,2.752,0,0,1,560.759,224.225Z" transform="translate(-520.867 -204.514)"/>
    <path id="Path_18" data-name="Path 18" d="M565.364,225.253c-.757,0-1.191.3-1.191.75s.46.566,1.04.651l.651.1c1.376.2,2.191.784,2.191,1.863,0,1.211-1.054,2.06-2.869,2.06a4.643,4.643,0,0,1-2.705-.809l.638-1.034a3.172,3.172,0,0,0,2.08.646c.948,0,1.435-.3,1.435-.77,0-.363-.335-.593-1.093-.7l-.657-.086c-1.4-.19-2.139-.829-2.139-1.848,0-1.245,1-2.02,2.606-2.02a4.79,4.79,0,0,1,2.553.665l-.593,1.073A4.1,4.1,0,0,0,565.364,225.253Z" transform="translate(-521.857 -204.516)"/>
  </g>
  <path id="Path_19" data-name="Path 19" d="M465.883,223.769l4.193,4.192,0,0,0,0,4.223,4.223a1.24,1.24,0,0,0,1.757,0l14.723-14.724h0l.488-.488a8.337,8.337,0,0,0,2.457-5.932h0a8.333,8.333,0,0,0-1.4-4.651,8.466,8.466,0,0,0-1.053-1.28l-4.215-4.216-.009-.01,0,0L476.059,189.9a1.279,1.279,0,0,0-1.757,0l-8.28,8.28a1.241,1.241,0,0,0,0,1.757l10.967,10.967-11.107,11.107A1.241,1.241,0,0,0,465.883,223.769Zm5.158-27.09,10.1,10.067c-.018.018-.032.037-.049.055l-2.348,2.348-10.088-10.088Zm10.206,1.927a1.165,1.165,0,0,0,.08.14,5.917,5.917,0,0,1,1.153,5.825l-9.682-9.649,2.383-2.383Zm-8.535,28.479,14.333-14.333a8.367,8.367,0,0,0,2.451-5.9l.018.018q.209.209.394.435a5.9,5.9,0,0,1-.394,7.913l-14.333,14.334Zm-4.193-4.193,14.332-14.333a8.32,8.32,0,0,0,2.435-5.914l.007.006a5.912,5.912,0,0,1,0,8.346l-14.332,14.333Z" transform="translate(-465.518 -189.553)" fill="#ee3f23"/>
</svg>
