<svg xmlns="http://www.w3.org/2000/svg" width="42.786" height="37.325" viewBox="0 0 42.786 37.325">
  <g id="Group_270" data-name="Group 270" transform="translate(-233.541 -329.48)">
    <path id="Path_2150" data-name="Path 2150" d="M326.519,408.337H321.41v2.013h3.112a2.124,2.124,0,0,1-.535,1.057,3.012,3.012,0,0,1-2.155.881h0a3.287,3.287,0,0,1-2.313-.96,3.144,3.144,0,0,1,4.4-4.488l.249.236,1.434-1.462-.267-.244a5.309,5.309,0,0,0-3.569-1.393h-.024a5.245,5.245,0,0,0-3.688,1.5,5.129,5.129,0,0,0-1.557,3.675,4.973,4.973,0,0,0,1.5,3.567h0a5.556,5.556,0,0,0,3.807,1.558h.049a4.855,4.855,0,0,0,3.477-1.377,4.7,4.7,0,0,0,1.321-3.215,5.573,5.573,0,0,0-.08-1.068Z" transform="translate(-57.006 -51.192)" fill="#fff"/>
    <path id="Path_2151" data-name="Path 2151" d="M273.445,332.358l0-.01a3.835,3.835,0,0,0-3.578-2.868H240a3.837,3.837,0,0,0-3.58,2.878l-2.882,11.059v.12a6.024,6.024,0,0,0,2.82,5.092v14.392a3.789,3.789,0,0,0,3.784,3.784h29.57a3.789,3.789,0,0,0,3.784-3.784V348.633a6.024,6.024,0,0,0,2.827-5.1v-.12Zm-17.574-1h6.834l1.317,10.624.2,1.611a4.176,4.176,0,0,1-8.35-.055Zm-1.877,0v12.18a4.175,4.175,0,0,1-8.35.058l1.594-12.238Zm-15.76,1.49a1.974,1.974,0,0,1,1.768-1.49h5.344l-1.571,12.059-.008.121a4.175,4.175,0,0,1-8.348.114Zm33.388,30.174a1.909,1.909,0,0,1-1.907,1.907h-29.57a1.91,1.91,0,0,1-1.907-1.907V349.412a6.018,6.018,0,0,0,6.468-2.663,6.046,6.046,0,0,0,10.227,0,6.047,6.047,0,0,0,10.228,0,6.019,6.019,0,0,0,6.461,2.664Zm-1.348-15.328a4.17,4.17,0,0,1-4.175-4.156l-1.5-12.18h5.268a1.971,1.971,0,0,1,1.768,1.485l2.816,10.81A4.171,4.171,0,0,1,270.275,347.693Z" transform="translate(0 0)" fill="#fff"/>
  </g>
</svg>
