<?xml version="1.0" encoding="utf-8"?>
<!-- Generator: Adobe Illustrator 24.0.0, SVG Export Plug-In . SVG Version: 6.00 Build 0)  -->
<svg version="1.1" id="Layer_1" xmlns="http://www.w3.org/2000/svg" xmlns:xlink="http://www.w3.org/1999/xlink" x="0px" y="0px"
	 viewBox="0 0 104 68" style="enable-background:new 0 0 104 68;" xml:space="preserve">
<style type="text/css">
	.st0{fill:#E6E6E6;}
	.st1{fill:none;stroke:#EE3F23;stroke-width:4;stroke-linecap:round;stroke-linejoin:round;}
</style>
<g id="Group_1" transform="translate(2 2.16)">
	<path id="Path_2195" class="st0" d="M7.71,20.25c4.5-8.89,11.94-16.47,24.14-18.21c7.67-1.09,17.97-0.67,23.93,1.4
		c9.14,3.17,16.9,16.81,16.9,16.81L7.71,20.25"/>
	<g id="Group_375" transform="translate(0 0)">
		<ellipse id="Ellipse_85" class="st1" cx="13.06" cy="50.29" rx="11.94" ry="11.94"/>
		<ellipse id="Ellipse_86" class="st1" cx="77.55" cy="50.29" rx="11.94" ry="11.94"/>
		<path id="Path_2196" class="st1" d="M89.49,50.29h3.19c3.5-0.08,6.28-2.98,6.2-6.48c0-0.02,0-0.03,0-0.05
			c0.01-8.55-2.27-13.54-6.68-17.63c-5.59-5.18-19.54-5.89-19.54-5.89S64.9,6.61,55.76,3.44c-5.96-2.07-16.26-2.5-23.92-1.4
			C4.83,5.89,1.12,38.41,1.12,50.3"/>
		<line id="Line_20" class="st1" x1="25" y1="50.29" x2="65.61" y2="50.29"/>
	</g>
</g>
</svg>
