<?xml version="1.0" standalone="no"?>
<!DOCTYPE svg PUBLIC "-//W3C//DTD SVG 20010904//EN"
 "http://www.w3.org/TR/2001/REC-SVG-20010904/DTD/svg10.dtd">
<svg version="1.0" xmlns="http://www.w3.org/2000/svg"
 width="260.000000pt" height="260.000000pt" viewBox="0 0 260.000000 260.000000"
 preserveAspectRatio="xMidYMid meet">
<metadata>
Created by potrace 1.11, written by Peter Selinger 2001-2013
</metadata>
<g transform="translate(0.000000,260.000000) scale(0.100000,-0.100000)"
fill="#000000" stroke="none">
<path d="M1004 2568 c-10 -6 -135 -127 -276 -269 -228 -227 -258 -261 -258
-289 0 -28 37 -69 335 -368 l336 -336 -335 -336 c-184 -184 -337 -345 -341
-357 -3 -12 -1 -33 6 -45 20 -37 513 -526 542 -537 17 -7 36 -7 50 -2 31 13
969 957 1001 1008 47 76 69 159 69 263 1 102 -13 161 -60 248 -36 65 -988
1020 -1024 1026 -14 2 -34 -1 -45 -6z m225 -365 c159 -160 192 -198 222 -257
29 -61 34 -79 33 -145 0 -136 13 -144 -302 172 l-283 283 67 67 c36 37 68 67
71 67 3 0 89 -84 192 -187z m151 -650 c0 -5 -29 -38 -65 -73 l-65 -65 -295
295 c-162 162 -295 298 -295 302 0 4 30 36 66 72 l66 65 294 -293 c162 -162
294 -298 294 -303z m334 117 c22 -54 27 -149 12 -204 -25 -92 -58 -129 -500
-570 l-441 -441 -65 68 c-36 37 -67 70 -70 73 -2 2 197 206 442 452 299 299
457 464 477 499 38 66 64 154 70 237 2 17 57 -68 75 -114z m214 -177 c73 -117
77 -260 9 -373 -25 -41 -895 -915 -904 -908 -3 3 -36 34 -72 69 l-67 64 452
455 c488 492 496 501 528 640 17 72 16 66 16 85 0 23 6 18 38 -32z"/>
</g>
</svg>
