<svg xmlns="http://www.w3.org/2000/svg" width="100.233" height="24.607" viewBox="0 0 100.233 24.607">
  <g id="Group_272" data-name="Group 272" transform="translate(-20.5 -248.5)">
    <path id="Path_2172" data-name="Path 2172" d="M178.117,300.7h10.14v1.888h-3.993v10.641h-2.188V302.588H178.1l.017-1.888Zm9.706,3.458h1.871v1.754h.033a2.2,2.2,0,0,1,.351-.718,2.776,2.776,0,0,1,.618-.635,2.734,2.734,0,0,1,.8-.468,2.333,2.333,0,0,1,.885-.184c.234,0,.4.017.484.017a1.46,1.46,0,0,0,.267.033v1.921a3.389,3.389,0,0,0-.434-.067,3.811,3.811,0,0,0-.434-.033,2.318,2.318,0,0,0-.952.2,2.414,2.414,0,0,0-.785.585,3.168,3.168,0,0,0-.535.969,4.088,4.088,0,0,0-.2,1.336v4.31h-2l.033-9.021Zm14.5,9.071h-1.971v-1.27h-.033a2.8,2.8,0,0,1-1.1,1.1,2.91,2.91,0,0,1-1.487.418,3.308,3.308,0,0,1-2.589-.885,3.873,3.873,0,0,1-.8-2.673v-5.763h2v5.563a2.371,2.371,0,0,0,.468,1.687,1.649,1.649,0,0,0,1.286.5,2.465,2.465,0,0,0,1.052-.2,1.816,1.816,0,0,0,.685-.518,2.031,2.031,0,0,0,.384-.785,3.709,3.709,0,0,0,.117-.986v-5.262h2v9.071Zm3.408-2.907a1.577,1.577,0,0,0,.668,1.236,2.631,2.631,0,0,0,1.387.351,4.585,4.585,0,0,0,.635-.05,2.8,2.8,0,0,0,.668-.167,1.176,1.176,0,0,0,.518-.368.855.855,0,0,0,.184-.618.9.9,0,0,0-.284-.635,2.369,2.369,0,0,0-.668-.4,5.81,5.81,0,0,0-.936-.251c-.351-.067-.7-.15-1.069-.234s-.735-.184-1.086-.3a3.112,3.112,0,0,1-.936-.484,2.083,2.083,0,0,1-.652-.768,2.4,2.4,0,0,1-.251-1.153,1.976,1.976,0,0,1,.368-1.236,2.665,2.665,0,0,1,.919-.8,4.172,4.172,0,0,1,1.236-.434,7.075,7.075,0,0,1,1.286-.117,5.745,5.745,0,0,1,1.336.15,3.378,3.378,0,0,1,1.153.484,2.647,2.647,0,0,1,.852.869,3.009,3.009,0,0,1,.434,1.286h-2.088a1.286,1.286,0,0,0-.652-.969,2.69,2.69,0,0,0-1.186-.251c-.134,0-.317.017-.5.033a2.94,2.94,0,0,0-.551.134,1.306,1.306,0,0,0-.434.284.668.668,0,0,0-.184.484.734.734,0,0,0,.251.585,2.27,2.27,0,0,0,.668.384,5.8,5.8,0,0,0,.936.251c.351.067.718.15,1.086.234s.718.184,1.069.3a2.924,2.924,0,0,1,.936.484,2.41,2.41,0,0,1,.668.752,2.309,2.309,0,0,1,.251,1.119,2.435,2.435,0,0,1-.368,1.37,3.125,3.125,0,0,1-.952.919,4.721,4.721,0,0,1-1.3.518,7,7,0,0,1-1.42.167,5.984,5.984,0,0,1-1.587-.2,4.04,4.04,0,0,1-1.27-.585,2.8,2.8,0,0,1-.835-.986,3.218,3.218,0,0,1-.334-1.4h2.021v.017Zm6.6-6.164h1.52v-2.74h2v2.723h1.8v1.487h-1.8v4.845a5.148,5.148,0,0,0,.033.551,1.159,1.159,0,0,0,.117.384.653.653,0,0,0,.284.234,1.49,1.49,0,0,0,.535.083,3.488,3.488,0,0,0,.418-.017,3.627,3.627,0,0,0,.418-.067V313.2c-.217.033-.434.05-.652.067a4.146,4.146,0,0,1-.652.033,4.316,4.316,0,0,1-1.27-.15,1.824,1.824,0,0,1-.752-.434,1.552,1.552,0,0,1-.368-.718,5.7,5.7,0,0,1-.117-1v-5.346h-1.52v-1.52h0Zm6.732,0h1.888v1.236h.033a2.481,2.481,0,0,1,1.169-1.136,3.787,3.787,0,0,1,1.637-.351,4.116,4.116,0,0,1,1.871.384,3.511,3.511,0,0,1,1.32,1.036,4.322,4.322,0,0,1,.785,1.537,6.749,6.749,0,0,1,.033,3.642,4.913,4.913,0,0,1-.718,1.52,3.554,3.554,0,0,1-1.219,1.052,3.606,3.606,0,0,1-1.737.4,5.1,5.1,0,0,1-.869-.084,3.7,3.7,0,0,1-.835-.251,3,3,0,0,1-.735-.451,2.545,2.545,0,0,1-.568-.635h-.033v4.527h-2V304.158Zm7,4.544a4.071,4.071,0,0,0-.167-1.186,3.026,3.026,0,0,0-.484-1.019,2.672,2.672,0,0,0-.785-.718,2.137,2.137,0,0,0-1.086-.267,2.219,2.219,0,0,0-1.9.869,3.957,3.957,0,0,0-.635,2.339,4.327,4.327,0,0,0,.167,1.27,2.829,2.829,0,0,0,.5,1,2.388,2.388,0,0,0,.8.668,2.265,2.265,0,0,0,1.086.251,2.223,2.223,0,0,0,1.153-.284,2.691,2.691,0,0,0,.785-.718,2.94,2.94,0,0,0,.434-1.019,5.735,5.735,0,0,0,.134-1.186Zm3.525-8h2v1.888h-2Zm0,3.458h2v9.071h-2v-9.071Zm3.792-3.458h2v12.529h-2V300.7Zm8.119,12.78a4.774,4.774,0,0,1-1.938-.368,4.4,4.4,0,0,1-1.437-.986,4.29,4.29,0,0,1-.885-1.52,5.938,5.938,0,0,1-.317-1.921,5.426,5.426,0,0,1,.317-1.9,4.443,4.443,0,0,1,.885-1.52,4.007,4.007,0,0,1,1.437-.986,5.072,5.072,0,0,1,1.938-.367,4.773,4.773,0,0,1,1.938.367,4.158,4.158,0,0,1,1.437.986,4.292,4.292,0,0,1,.885,1.52,5.837,5.837,0,0,1,.317,1.9,5.455,5.455,0,0,1-.317,1.921,4.726,4.726,0,0,1-.885,1.52,4.006,4.006,0,0,1-1.437.986,5.009,5.009,0,0,1-1.938.368Zm0-1.587a2.311,2.311,0,0,0,1.153-.284,2.419,2.419,0,0,0,.8-.735,3.15,3.15,0,0,0,.468-1.019,4.556,4.556,0,0,0,0-2.322,3,3,0,0,0-.468-1.019,2.538,2.538,0,0,0-.8-.718,2.355,2.355,0,0,0-1.153-.284,2.31,2.31,0,0,0-1.153.284,2.559,2.559,0,0,0-.8.718,3,3,0,0,0-.468,1.019,4.558,4.558,0,0,0,0,2.322,3,3,0,0,0,.468,1.019,2.592,2.592,0,0,0,.8.735,2.188,2.188,0,0,0,1.153.284Zm5.179-7.735h1.52v-2.74h2v2.723h1.8v1.487h-1.8v4.845a5.143,5.143,0,0,0,.033.551,1.159,1.159,0,0,0,.117.384.653.653,0,0,0,.284.234,1.49,1.49,0,0,0,.535.083,3.488,3.488,0,0,0,.418-.017,3.627,3.627,0,0,0,.418-.067V313.2c-.217.033-.434.05-.652.067a4.146,4.146,0,0,1-.651.033,4.316,4.316,0,0,1-1.27-.15,1.824,1.824,0,0,1-.752-.434,1.553,1.553,0,0,1-.367-.718,5.7,5.7,0,0,1-.117-1v-5.346h-1.52v-1.52h0Z" transform="translate(-131.272 -43.48)" fill="#fff"/>
    <path id="Path_2173" data-name="Path 2173" d="M32.511,265.924l4.63-3.365v0l7.364-5.34H35.335l-2.823-8.72-2.84,8.72L20.5,257.2l7.417,5.4-2.84,8.72,7.417-5.4,7.417,5.4-2.193-6.774Z" transform="translate(0)" fill="#fff"/>
  </g>
</svg>
