<svg xmlns="http://www.w3.org/2000/svg" width="82.272" height="41.781" viewBox="0 0 82.272 41.781">
  <path id="Path_2149" data-name="Path 2149" d="M108.384,51.514a4.609,4.609,0,0,0,2.45-2.322,4.73,4.73,0,0,0,.061-3.842,14.789,14.789,0,0,0-3.816-5.249,4.67,4.67,0,0,0-3.072-1.162h-.023a4.534,4.534,0,0,0-3.509,1.6V34.027a4.643,4.643,0,0,0-4.646-4.654H95.8a20.95,20.95,0,0,0-4.325.7,22.193,22.193,0,0,0-3.794,1.4A4.653,4.653,0,0,0,85.658,38l3.264,5.653a4.776,4.776,0,0,0-1.535-.259,4.647,4.647,0,0,0-4.41,3.167l-.021.063a8.28,8.28,0,0,0-1.913-1.251,8.992,8.992,0,0,0-3.834-.86,8.617,8.617,0,0,0-2.828.469,4.99,4.99,0,0,0-5,.309v-.424a4.988,4.988,0,0,0-9.976,0v2.087a9.06,9.06,0,0,0-6.117-2.337,9.2,9.2,0,0,0-5.541,1.92,4.98,4.98,0,0,0-2.455-1.68A5.031,5.031,0,0,0,39,48.176l-.033.106-.4-.826a5,5,0,0,0-6.73-2.317,5.034,5.034,0,0,0-2.317,6.732l4.451,9.121a4.794,4.794,0,0,0-2.681,3.139,4.854,4.854,0,0,0,.737,4.241,5.582,5.582,0,0,0,4.631,2.15c.092,0,.182,0,.272,0,3.574,0,6.191-1.772,7.179-4.863.321-1,.705-2.22,1.146-3.627l.026.049A8.5,8.5,0,0,0,53.2,66.621a9.785,9.785,0,0,0,6.953-2.409,4.981,4.981,0,0,0,7,1.529v.424a4.988,4.988,0,0,0,9.963.356,8.694,8.694,0,0,0,6.142-2.476l.034-.036a8.185,8.185,0,0,0,1.045-1.33,4.32,4.32,0,0,0,1.882.432,4.275,4.275,0,0,0,1.554-.289,4.651,4.651,0,0,0,.916.83,15.1,15.1,0,0,0,6,2.429,4.7,4.7,0,0,0,.773.065,4.633,4.633,0,0,0,4.605-3.99,4.654,4.654,0,0,0,6.62.71,15.088,15.088,0,0,0,3.985-5.1,4.654,4.654,0,0,0-2.293-6.248Zm-62.93-1.339s-2.812,9.2-4.5,14.481c-.559,1.748-2.024,2.615-4.22,2.561-2.173-.052-2.509-1.333-2.269-2.178a1.684,1.684,0,0,1,1.8-1.205c1.962.01,2.212-1.179,1.473-2.652l-5.251-10.76a1.726,1.726,0,0,1,3.1-1.514l4.066,8.331,2.5-8.084a1.727,1.727,0,0,1,3.3,1.021ZM59.323,55.04a1.8,1.8,0,0,1-1.635,1.871c-.042,0-.083.006-.125.006l-6.038-.006c-.517.02-.722.172-.722.565a2.689,2.689,0,0,0,2.762,2.712c1.709,0,2.77-1.541,3.543-1.8a1.453,1.453,0,0,1,1.8,1.549c0,.686-1.044,3.379-5.705,3.379-5.4,0-5.946-4.9-5.978-7.471,0-6.823,4.209-7.921,6.068-7.921,1.787,0,5.729.889,6.028,7.026,0,.029,0,.056.006.085Zm6.752,6.55a1.681,1.681,0,0,1-3.361,0V44.864a1.681,1.681,0,0,1,3.361,0Zm10.674,1.617a4.247,4.247,0,0,1-2.927-1.431v4.389a1.681,1.681,0,1,1-3.361,0V49.44a1.68,1.68,0,0,1,3.312-.4,8.792,8.792,0,0,1,.856-.558,5.476,5.476,0,0,1,4.994-.127c2.785,1.323,3.056,4.346,3.056,6.551C82.714,56.431,83.132,63.374,76.749,63.208ZM86.22,59.9a.935.935,0,1,1,.943-.94A.932.932,0,0,1,86.22,59.9Zm1.025-6.107a1.348,1.348,0,0,1-1.664-1.157,11.582,11.582,0,0,1,.529-5.022,1.346,1.346,0,0,1,1.866-.777L93.845,49.7a1.346,1.346,0,0,1-.264,2.515Zm9.565,7.747a1.347,1.347,0,0,1-1.57,1.281,11.688,11.688,0,0,1-4.678-1.893,1.346,1.346,0,0,1-.237-2.01l4.369-4.853a1.345,1.345,0,0,1,2.344.947ZM97.168,46.3a1.345,1.345,0,0,1-2.51.673L88.523,36.344a1.345,1.345,0,0,1,.583-1.887,18.9,18.9,0,0,1,6.615-1.772,1.346,1.346,0,0,1,1.448,1.343Zm10.524,10.04a11.687,11.687,0,0,1-3.1,3.979,1.347,1.347,0,0,1-2-.324l-3.461-5.539a1.345,1.345,0,0,1,1.556-1.992l6.209,2.018A1.346,1.346,0,0,1,107.692,56.337ZM107,48.5l-6.277,1.8a1.345,1.345,0,0,1-1.486-2.045l3.652-5.414a1.345,1.345,0,0,1,2-.259,11.594,11.594,0,0,1,2.97,4.084A1.348,1.348,0,0,1,107,48.5Z" transform="translate(-29 -29.373)" fill="#fff"/>
</svg>
