<?xml version="1.0" encoding="utf-8"?>
<!-- Generator: Adobe Illustrator 22.1.0, SVG Export Plug-In . SVG Version: 6.00 Build 0)  -->
<svg version="1.1" id="Layer_1" xmlns="http://www.w3.org/2000/svg" xmlns:xlink="http://www.w3.org/1999/xlink" x="0px" y="0px"
	 viewBox="0 0 76 66" style="enable-background:new 0 0 76 66;" xml:space="preserve">
<style type="text/css">
	.st0{fill:#E6E6E6;}
	.st1{fill:none;stroke:#EE3F23;stroke-width:3.582;stroke-linecap:round;stroke-linejoin:round;}
	.st2{fill:none;stroke:#EF4023;stroke-width:3.582;stroke-linecap:round;stroke-linejoin:round;}
</style>
<g id="Group_16" transform="translate(-2654.814 -807.115)">
	<path id="Path_33" class="st0" d="M2719.3,856.5h-53c-2.7,0-4.9-2.2-4.9-4.9c0,0,0,0,0,0v14.3c0,2.7,2.2,4.9,4.9,4.9c0,0,0,0,0,0
		h53c2.7,0,4.9-2.2,4.9-4.9c0,0,0,0,0,0v-14.3C2724.2,854.3,2722,856.5,2719.3,856.5C2719.3,856.5,2719.3,856.5,2719.3,856.5z"/>
	<path id="Rectangle_18" class="st1" d="M2728.5,822.1h-71.4l0,0v-7.8c0-2.7,2.2-4.9,4.9-4.9h61.6c2.7,0,4.9,2.2,4.9,4.9V822.1
		L2728.5,822.1z"/>
	<path id="Path_34" class="st1" d="M2724.2,822.1v43.8c0,2.7-2.2,4.9-4.9,4.9h-53c-2.7,0-4.9-2.2-4.9-4.9c0,0,0,0,0,0v-43.8"/>
	<path id="Rectangle_19" class="st2" d="M2683.9,834.5h17.8c2.6,0,4.8,2.1,4.8,4.8v0c0,2.6-2.1,4.8-4.8,4.8h-17.8
		c-2.6,0-4.8-2.1-4.8-4.8v0C2679.1,836.7,2681.3,834.5,2683.9,834.5z"/>
</g>
</svg>
