<?xml version="1.0" encoding="utf-8"?>
<!-- Generator: Adobe Illustrator 22.1.0, SVG Export Plug-In . SVG Version: 6.00 Build 0)  -->
<svg version="1.1" id="Layer_1" xmlns="http://www.w3.org/2000/svg" xmlns:xlink="http://www.w3.org/1999/xlink" x="0px" y="0px"
	 viewBox="0 0 92 70" style="enable-background:new 0 0 92 70;" xml:space="preserve">
<style type="text/css">
	.st0{fill:#E6E6E6;}
	.st1{fill:none;stroke:#EF4023;stroke-width:3.582;stroke-linecap:round;stroke-linejoin:round;}
	.st2{fill:none;stroke:#EE3F23;stroke-width:3.582;stroke-linecap:round;stroke-linejoin:round;}
</style>
<g id="Group_10" transform="translate(-2648.454 -680.9)">
	<path id="Path_25" class="st0" d="M2669.8,715.1c2.7-5.3,7.2-9.9,14.5-10.9c4.6-0.7,10.8-0.4,14.4,0.8c5.5,1.9,10.1,10.1,10.1,10.1
		H2669.8"/>
	<g id="Group_9">
		<circle id="Ellipse_4" class="st1" cx="2673" cy="733.1" r="7.2"/>
		<circle id="Ellipse_5" class="st1" cx="2711.7" cy="733.1" r="7.2"/>
		<path id="Path_26" class="st1" d="M2718.9,733.1h1.9c2.1,0,3.8-1.8,3.7-3.9c0,0,0,0,0,0c0-5.1-1.4-8.1-4-10.6
			c-3.4-3.1-11.7-3.5-11.7-3.5s-4.7-8.2-10.1-10.1c-3.6-1.2-9.8-1.5-14.4-0.8c-16.2,2.3-18.4,21.8-18.4,29"/>
		<line id="Line_5" class="st1" x1="2680.2" y1="733.1" x2="2704.5" y2="733.1"/>
	</g>
	<path id="Path_27" class="st2" d="M2733.7,694.9v52.5h-78.5v-52.5"/>
	<path id="Path_28" class="st2" d="M2656.5,684.3h75.9c2.7,0,4.9,2.2,4.9,4.9c0,0,0,0,0,0v5.7h-85.8v-5.7
		C2651.6,686.5,2653.8,684.4,2656.5,684.3C2656.5,684.3,2656.5,684.3,2656.5,684.3z"/>
</g>
</svg>
